Coordinates
version=1
nRows=20
nColumns=26
inDegrees=yes

Units are S.I. units (second, meters, Newtons, ...)
If the header above contains a line with 'inDegrees', this indicates whether rotational values are in degrees (yes) or radians (no).

endheader
time	pelvis_tilt	pelvis_list	pelvis_rotation	pelvis_tx	pelvis_ty	pelvis_tz	hip_flexion_r	hip_adduction_r	hip_rotation_r	knee_angle_r	knee_angle_r_beta	ankle_angle_r	subtalar_angle_r	mtp_angle_r	hip_flexion_l	hip_adduction_l	hip_rotation_l	knee_angle_l	knee_angle_l_beta	ankle_angle_l	subtalar_angle_l	mtp_angle_l	lumbar_extension	lumbar_bending	lumbar_rotation
      1.38500000	      7.42489752	     -0.83981450	      2.82458387	      0.53385025	      1.00733623	      0.23657438	     17.17431762	      2.66639529	     -5.93260338	      5.37959370	      0.09389162	      8.37389612	      0.33584212	     -4.46455928	    -26.37329395	      4.01258600	      9.64897930	      3.76467529	      0.06570598	      6.75536997	     -9.37649764	     -4.46455928	    -18.02503265	      1.15024672	     -3.55004384
      1.39000000	      7.39666254	     -0.94683366	      2.97266617	      0.54142255	      1.00660949	      0.23672712	     17.04449247	      2.79473114	     -6.44596793	      5.13047370	      0.08954366	      8.51900759	      0.47822335	     -4.92801314	    -26.64083164	      3.75679075	      9.55364768	      4.04695510	      0.07063269	      6.76741052	     -8.83600228	     -4.92801314	    -17.89575602	      1.28837409	     -3.56207251
      1.39500000	      7.37393414	     -1.09583523	      3.11337705	      0.54906646	      1.00591942	      0.23686080	     16.85044279	      2.99047990	     -6.74639568	      4.85831364	      0.08479357	      8.41517847	      0.21760612	     -5.47941138	    -26.88893763	      3.46638234	      9.40330253	      4.37648618	      0.07638409	      6.82369477	     -8.26833159	     -5.47941138	    -17.75925743	      1.48881869	     -3.57678795
      1.40000000	      7.33588214	     -1.27856416	      3.24547172	      0.55676298	      1.00523622	      0.23701235	     16.68682863	      3.22590788	     -7.04212936	      4.70179341	      0.08206178	      8.18246623	     -0.21650857	     -5.81283195	    -27.10964897	      3.14550585	      9.28921216	      4.72720484	      0.08250529	      6.86765018	     -7.72207283	     -5.81283195	    -17.60092698	      1.71774747	     -3.53247612
      1.40500000	      7.29886854	     -1.46893764	      3.39579821	      0.56460003	      1.00459576	      0.23709670	     16.47833113	      3.46924645	     -7.15779143	      4.57111558	      0.07978102	      7.78246597	     -1.03806297	     -6.19843498	    -27.31477134	      2.79858916	      9.07863360	      5.11985126	      0.08935826	      6.91416009	     -6.94938221	     -6.19843498	    -17.42710363	      1.98536909	     -3.63032278
      1.41000000	      7.31195945	     -1.72414523	      3.54297457	      0.57248789	      1.00406391	      0.23714160	     16.22665397	      3.77234611	     -7.40433050	      4.52600588	      0.07899370	      7.33067410	     -1.69561709	     -6.51925044	    -27.54272248	      2.39898364	      8.87032841	      5.56592961	      0.09714380	      6.91003055	     -6.43658385	     -6.51925044	    -17.29471122	      2.32591905	     -3.54752850
      1.41500000	      7.27807170	     -1.98352573	      3.62330951	      0.58042035	      1.00350198	      0.23729912	     15.99086556	      4.11830370	     -7.31615926	      4.46847614	      0.07798962	      6.52377199	     -2.87842407	     -6.80442019	    -27.72974301	      2.02736767	      8.67171280	      5.98871531	      0.10452280	      6.79659787	     -5.95429237	     -6.80442019	    -17.10379747	      2.66275163	     -3.48071956
      1.42000000	      7.25880281	     -2.27913246	      3.74293038	      0.58842029	      1.00301296	      0.23736671	     15.77516073	      4.47085678	     -7.41054114	      4.55611295	      0.07951917	      5.75552443	     -3.86279979	     -7.00902360	    -27.91224325	      1.60591591	      8.50542828	      6.44552663	      0.11249566	      6.65192065	     -5.51460092	     -7.00902360	    -16.91839789	      3.05752920	     -3.44218746
      1.42500000	      7.22702896	     -2.61088374	      3.85310315	      0.59648403	      1.00254145	      0.23744550	     15.56042820	      4.86856917	     -7.42667767	      4.66179697	      0.08136371	      4.80304444	     -5.02939003	     -7.13152185	    -28.05206081	      1.14653873	      8.25686919	      6.95880324	      0.12145403	      6.55462591	     -4.92236181	     -7.13152185	    -16.71112177	      3.49466011	     -3.38607940
      1.43000000	      7.22280386	     -2.98507314	      3.97782736	      0.60456346	      1.00217440	      0.23744798	     15.32455123	      5.30053002	     -7.47110276	      4.81884541	      0.08410472	      3.76713190	     -6.11293631	     -7.19757457	    -28.17991741	      0.64208298	      7.97133641	      7.53188626	      0.13145621	      6.41500053	     -4.36026951	     -7.19757457	    -16.52832227	      3.99981958	     -3.36461316
      1.43500000	      7.20041373	     -3.35963987	      4.04305519	      0.61266058	      1.00184416	      0.23754037	     15.10525245	      5.75000032	     -7.34508506	      4.99920752	      0.08725263	      2.60126494	     -7.34575318	     -7.24210548	    -28.30880195	      0.17641045	      7.76068215	      8.06299780	      0.14072586	      6.08891734	     -4.03791572	     -7.24210548	    -16.32775138	      4.48842438	     -3.26960401
      1.44000000	      7.13860144	     -3.76319559	      4.05651222	      0.62076184	      1.00151275	      0.23772941	     14.90094589	      6.26427611	     -6.97448649	      5.13303478	      0.08958836	      1.21205673	     -8.91855655	     -7.30033393	    -28.37733977	     -0.29276937	      7.47962238	      8.60756346	      0.15023032	      5.63381261	     -3.78313165	     -7.30033393	    -16.08657783	      5.00162136	     -3.10708920
      1.44500000	      7.15605487	     -4.22457436	      4.13126074	      0.62890656	      1.00137293	      0.23778498	     14.68763157	      6.77938307	     -7.02612249	      5.44433419	      0.09502156	      0.02920572	     -9.76310454	     -7.33924995	    -28.47692899	     -0.85473809	      7.15142710	      9.26729529	      0.16174482	      5.39148009	     -3.28922122	     -7.33924995	    -15.92203006	      5.60810184	     -3.02864703
      1.45000000	      7.22805525	     -4.71755527	      4.12932822	      0.63715194	      1.00134130	      0.23798734	     14.58365416	      7.27627676	     -7.60855748	      6.17018843	      0.10769010	     -0.22526313	     -9.25973381	     -7.36160943	    -28.52200884	     -1.47978109	      6.18131312	     10.11562793	      0.17655101	      5.24113254	     -1.95758415	     -7.36160943	    -15.81611826	      6.22162643	     -2.83432034
      1.45500000	      7.10576692	     -5.14976139	      4.09395182	      0.64511382	      1.00120999	      0.23817213	     14.26049909	      7.91118038	     -6.32574832	      5.89938055	      0.10296361	     -2.60251003	    -12.13804470	     -7.39074667	    -28.57838589	     -1.86458837	      6.52804038	     10.52170505	      0.18363840	      4.18920936	     -2.87111363	     -7.39074667	    -15.53408810	      6.78343166	     -2.70023895
      1.46000000	      7.11261116	     -5.64960999	      4.08172356	      0.65319845	      1.00128660	      0.23833613	     14.04748490	      8.50044583	     -6.06176103	      6.21253544	      0.10842920	     -3.75474939	    -13.06174125	     -7.41523993	    -28.61407484	     -2.41272894	      6.18381345	     11.23053941	      0.19600989	      3.52408385	     -2.62676528	     -7.41523993	    -15.38099674	      7.42547667	     -2.51814864
      1.46500000	      7.11610128	     -6.18140759	      4.04428559	      0.66126473	      1.00145670	      0.23854103	     13.82920340	      9.13816765	     -5.72837897	      6.50539058	      0.11354048	     -4.86531542	    -13.93171659	     -7.43172962	    -28.61836847	     -2.97634687	      5.80537357	     11.96307401	      0.20879503	      2.77964335	     -2.40606249	     -7.43172962	    -15.23004693	      8.09513258	     -2.32765083
      1.47000000	      7.10994771	     -6.70299636	      4.06847441	      0.66943439	      1.00161118	      0.23870387	     13.96782410	      9.58542723	     -6.65103079	      7.60424089	      0.13271904	     -4.12313770	    -12.37616417	     -7.44185756	    -28.53371008	     -3.64102859	      5.23193019	     12.85287330	      0.22432496	      2.70879968	     -0.85052715	     -7.44185756	    -15.02431570	      8.75112666	     -2.16939016
      1.47500000	      7.14456473	     -7.23590912	      3.90605655	      0.67727035	      1.00208730	      0.23902249	     13.38820265	     10.40639822	     -4.98239155	      7.16780253	      0.12510175	     -6.63413476	    -15.34967715	     -7.45198971	    -28.59196311	     -4.03847952	      5.18056985	     13.48341578	      0.23533000	      0.80073074	     -2.36534259	     -7.45198971	    -14.99365237	      9.41736298	     -1.89626185
      1.48000000	      7.17053626	     -7.79518343	      3.82301064	      0.68521321	      1.00251616	      0.23929879	     13.13872460	     11.08923025	     -4.53901007	      7.46915501	      0.13036135	     -7.39893208	    -16.04039586	     -7.45979009	    -28.53046964	     -4.59647714	      4.83301664	     14.32659855	      0.25004632	     -0.27586982	     -2.33864767	     -7.45979009	    -14.90341437	     10.11731630	     -1.66713737
